<svg xmlns="http://www.w3.org/2000/svg" viewBox="0 0 902.56 253.68"><defs><style>.cls-1{fill:#fff;}.cls-2{fill:#7bbead;}</style></defs><title>Logo_web</title><g id="Layer_2" data-name="Layer 2"><g id="Layer_1-2" data-name="Layer 1"><path class="cls-1" d="M245.29,182.23a3.33,3.33,0,0,1,0-6.66c8.24,0,10.26-5.94,10.74-8.4l-29.78-49.8v-.92a109.8,109.8,0,0,0-219.59,0,3.33,3.33,0,1,1-6.66,0,116.45,116.45,0,0,1,232.9-.92l30,50.14-.08,1C262.43,172.08,258.27,182.23,245.29,182.23Z"/><path class="cls-1" d="M204.9,253.68a3.33,3.33,0,0,1,0-6.66,21.37,21.37,0,0,0,21.35-21.34V199.09a3.33,3.33,0,1,1,6.66,0v26.59A28,28,0,0,1,204.9,253.68Z"/><path class="cls-1" d="M66.61,221.37a3.2,3.2,0,0,1-1.46-.35,116.56,116.56,0,0,1-61-73.68,3.33,3.33,0,1,1,6.42-1.76,109.93,109.93,0,0,0,57.53,69.47,3.33,3.33,0,0,1-1.48,6.32Z"/><path class="cls-2" d="M87.72,95.78l-.06-.25c0-.18-.12-.34-.18-.51s-.09-.27-.15-.4a2.72,2.72,0,0,0-.16-.35c-.08-.17-.16-.35-.25-.52a1.86,1.86,0,0,0-.11-.19,8.62,8.62,0,0,0-.69-1L98,80.64a9.45,9.45,0,0,0,1.07.71l.16.09a5.52,5.52,0,0,0,.55.26l.32.16.42.15.49.17.27.07c.22.06.44.12.66.16H102a9.29,9.29,0,0,0,1.76.17,9.61,9.61,0,0,0,1.79-.17h.05a5.49,5.49,0,0,0,.7-.17,1.55,1.55,0,0,0,.23-.06c.18-.05.36-.12.53-.18l.38-.14.37-.17.51-.25.2-.12c.21-.11.42-.24.62-.37l0,0a9.54,9.54,0,0,0,1.41-1.16,9.66,9.66,0,0,0,1.16-1.41v0c.14-.2.26-.41.38-.62l.12-.2c.09-.16.16-.34.24-.51s.12-.24.17-.36.1-.26.14-.38a5.52,5.52,0,0,0,.18-.53c0-.08,0-.16.07-.24.06-.23.12-.45.16-.69a.09.09,0,0,0,0,0,9.61,9.61,0,0,0,.18-1.79,9.51,9.51,0,0,0-.18-1.78.17.17,0,0,0,0-.07c0-.23-.1-.45-.16-.67a2.5,2.5,0,0,0-.07-.26c0-.17-.11-.34-.17-.51l-.15-.4c0-.12-.11-.23-.16-.34s-.16-.36-.25-.53a1.74,1.74,0,0,1-.11-.18,9.62,9.62,0,0,0-1.56-2.07A9,9,0,0,0,109.18,65l0,0c-.21-.14-.41-.26-.62-.38l-.2-.12-.52-.25-.35-.16-.41-.15-.5-.17-.28-.08c-.21,0-.43-.11-.65-.15l-.12,0a2.76,2.76,0,0,0-.4-.06V46.66a9.62,9.62,0,1,0-2.66,0V63.45a2.63,2.63,0,0,0-.39.06l-.13,0c-.22,0-.43.1-.65.15l-.28.08-.49.17c-.14,0-.28.09-.42.15l-.33.15-.54.26-.17.11a9.16,9.16,0,0,0-1.06.69L86.12,53.42a9.6,9.6,0,1,0-1.88,1.89L96.11,67.18a9.12,9.12,0,0,0-.7,1l-.1.18a5.2,5.2,0,0,0-.26.53c0,.11-.11.22-.16.34s-.1.27-.14.4a5.17,5.17,0,0,0-.18.51,2.5,2.5,0,0,0-.07.26c-.06.22-.12.44-.16.67a.17.17,0,0,0,0,.07A9.51,9.51,0,0,0,94.16,73a9.61,9.61,0,0,0,.17,1.79.09.09,0,0,0,0,0,5.35,5.35,0,0,0,.17.69,2.1,2.1,0,0,0,.06.24c.05.18.12.35.18.53s.09.25.14.38.11.24.17.36a4.81,4.81,0,0,0,.25.51,1.28,1.28,0,0,0,.11.2c.12.21.24.42.38.62v0l.3.4L84.24,90.63a8.92,8.92,0,0,0-1.07-.7l-.16-.1c-.18-.1-.37-.18-.56-.27l-.31-.14-.44-.16-.47-.17-.3-.08-.63-.15-.14,0a9.71,9.71,0,0,0-1.71-.16,9.53,9.53,0,0,0-1.79.17H76.6l-.7.17-.23.06a4.76,4.76,0,0,0-.53.19,1.73,1.73,0,0,0-.32.11l-.06,0-.36.17-.51.25-.2.11-.62.38h0c-.14.09-.27.2-.41.3L60.78,78.76a9.61,9.61,0,1,0-7.67,3.83,9.53,9.53,0,0,0,5.79-2L70.77,92.51a8.62,8.62,0,0,0-.69,1,1.86,1.86,0,0,0-.11.19c-.09.17-.17.35-.25.52s-.11.23-.16.35-.1.26-.15.4-.13.33-.18.51l-.06.25c-.06.22-.12.45-.17.68a.13.13,0,0,1,0,.06c0,.15,0,.3-.07.45H52.14a9.63,9.63,0,1,0,0,2.67H68.92c0,.15,0,.31.07.46a.09.09,0,0,1,0,.05c0,.23.11.47.17.7l.06.23c.06.18.12.36.19.54s.08.24.13.36l.18.38c.08.17.15.33.24.49l.13.24c.12.19.23.39.36.58l.06.08a9.27,9.27,0,0,0,1.84,2l.1.08a9.49,9.49,0,0,0,4,1.88h0l.6.1v16.78l-.38.06-.14,0c-.21,0-.42.1-.63.16l-.3.07-.48.17-.42.16a3.31,3.31,0,0,0-.33.15,5.36,5.36,0,0,0-.54.26l-.18.1a9.67,9.67,0,0,0-2.07,1.57,9.81,9.81,0,0,0-1.17,1.42h0c-.14.2-.27.41-.39.62a2,2,0,0,1-.11.2c-.09.17-.17.34-.25.51s-.11.24-.16.36-.1.26-.15.39-.13.34-.18.52l-.06.24c-.06.23-.12.46-.17.69a.13.13,0,0,1,0,.06c0,.15,0,.3-.07.45H52.14a9.63,9.63,0,1,0,0,2.66H68.92c0,.16,0,.31.07.46a.13.13,0,0,1,0,.06c0,.23.11.46.17.69l.06.24.18.52c0,.13.09.26.15.39l.16.36c.08.17.16.34.25.51l.12.2c.12.21.24.42.37.62l0,0,.28.39L58.9,151.79a9.61,9.61,0,0,0-12.6.87,9.63,9.63,0,1,0,14.48,1l11.87-11.87a9.47,9.47,0,0,0,3.86,1.75h0a7.55,7.55,0,0,0,.83.13l.13,0c.32,0,.65,0,1,0s.65,0,1,0l.14,0a7.37,7.37,0,0,0,.82-.13h0a9.55,9.55,0,0,0,3.28-1.36l.06,0c.17-.11.33-.24.49-.36l11.87,11.87c-.1.12-.19.24-.28.37l0,0c-.13.19-.25.4-.37.6s-.09.14-.13.22l-.24.5c-.06.12-.12.24-.17.37s-.09.25-.14.38-.13.35-.18.53a1.55,1.55,0,0,0-.06.23,5.78,5.78,0,0,0-.17.69.13.13,0,0,0,0,.06,9.51,9.51,0,0,0,0,3.58.07.07,0,0,0,0,.05,5.49,5.49,0,0,0,.17.7c0,.07,0,.15.06.23s.12.36.18.53.09.26.14.38.11.25.17.37l.24.5c0,.08.09.14.13.21s.24.41.37.61l0,0c.09.12.18.25.28.37L84.24,177.13A9.62,9.62,0,1,0,86.12,179L98,167.14a5.6,5.6,0,0,0,.49.36l0,0a9.45,9.45,0,0,0,3.33,1.38h0c.2,0,.41.06.61.09v16.79a9.63,9.63,0,1,0,2.66,0V169c.2,0,.41-.05.61-.09h0a9.47,9.47,0,0,0,4-1.9l.08-.06c.25-.2.49-.42.73-.65s.45-.48.65-.73l0-.05a9.45,9.45,0,0,0,1.92-4.07v0c.06-.27.09-.54.13-.82a.78.78,0,0,1,0-.14c0-.32,0-.64,0-1s0-.65,0-1a.59.59,0,0,1,0-.13c0-.28-.07-.56-.13-.83v0a9.45,9.45,0,0,0-1.92-4.07l0-.05c-.2-.25-.42-.49-.65-.73a10.42,10.42,0,0,0-1.47-1.2,9.49,9.49,0,0,0-3.38-1.41h0c-.27-.06-.55-.09-.82-.13l-.14,0c-.33,0-.65,0-1,0h0c-.33,0-.65,0-1,0l-.1,0a9.55,9.55,0,0,0-4.26,1.55l-.45.33L86.12,139.93l.28-.39,0,0c.13-.2.25-.41.37-.62l.12-.2c.09-.17.17-.34.25-.51l.16-.36c.06-.13.1-.26.15-.39s.13-.34.18-.52l.06-.24c.06-.23.12-.46.17-.69a.13.13,0,0,1,0-.06,9.46,9.46,0,0,0,0-3.57.13.13,0,0,1,0-.06c0-.23-.11-.46-.17-.69l-.06-.24c0-.18-.12-.35-.18-.52s-.09-.26-.15-.39-.1-.24-.16-.36-.16-.34-.25-.51a2,2,0,0,1-.11-.2c-.12-.21-.25-.42-.39-.62h0a9.81,9.81,0,0,0-1.17-1.42,9.19,9.19,0,0,0-1.42-1.17h0l-.62-.38-.2-.11-.5-.25-.37-.17-.39-.14c-.17-.06-.34-.13-.52-.18l-.26-.07c-.22-.06-.44-.12-.67-.16l-.1,0-.41-.06V107.83l.6-.1h0a9.49,9.49,0,0,0,4.08-1.92l0,0a9.24,9.24,0,0,0,.73-.66,8.89,8.89,0,0,0,1.12-1.36l.06-.08c.13-.19.24-.39.36-.58l.13-.24c.09-.16.16-.32.24-.49l.18-.38c0-.12.09-.24.13-.36s.13-.36.19-.54l.06-.23c.06-.23.12-.47.17-.7a.09.09,0,0,1,0-.05,9.51,9.51,0,0,0,0-3.58.13.13,0,0,1,0-.06C87.84,96.23,87.78,96,87.72,95.78Zm-2.44,3.86c0,.16-.08.31-.12.47s0,.14,0,.2-.08.25-.13.37-.06.19-.1.29l-.12.26-.18.37-.09.15c-.09.15-.17.3-.27.44l0,0A7.18,7.18,0,0,1,82.43,104l-.11.07-.37.23-.22.13-.29.14-.35.16-.18.07a3.71,3.71,0,0,1-.47.16l-.06,0a7.07,7.07,0,0,1-3.87,0l-.06,0a4.34,4.34,0,0,1-.47-.16l-.19-.07-.34-.16-.29-.14-.22-.13-.37-.23-.11-.07a7.26,7.26,0,0,1-1.76-1.78l0,0-.27-.44-.09-.15-.18-.37L72,101c0-.1-.07-.2-.1-.29s-.09-.24-.13-.37,0-.13,0-.2l-.12-.47a.38.38,0,0,0,0-.1,6.73,6.73,0,0,1,0-2.45.51.51,0,0,1,0-.13,3.48,3.48,0,0,1,.1-.44l.06-.23L71.9,96c0-.11.07-.22.12-.33s.07-.14.1-.22a3.86,3.86,0,0,1,.2-.41l.06-.1a7,7,0,0,1,2.14-2.34l0,0,.42-.26.17-.1.33-.16.31-.14.22-.08a3.81,3.81,0,0,1,.44-.15l.09,0a7,7,0,0,1,3.81,0l.09,0c.15,0,.29.1.44.15l.22.08.31.14.33.16.17.1.42.26,0,0a6.86,6.86,0,0,1,2.14,2.34l.06.1c.08.14.14.28.2.41l.1.22c0,.11.08.22.12.33l.12.33.06.23a3.48,3.48,0,0,1,.1.44.59.59,0,0,1,0,.13,6.73,6.73,0,0,1,0,2.45S85.28,99.61,85.28,99.64Zm15.19-32.8.46-.22.17-.08.38-.13.28-.1.29-.08c.13,0,.25-.07.38-.09l.2,0a7,7,0,0,1,2.33,0l.16,0,.43.1.25.07.33.11.32.12.23.1.4.2.12.07a6.88,6.88,0,0,1,2.35,2.17h0c.1.14.19.3.28.45a1,1,0,0,1,.08.14c.07.12.12.25.18.37l.12.26c0,.09.07.19.1.28s.1.25.14.38a.75.75,0,0,0,0,.16c0,.17.09.34.12.52h0a6.9,6.9,0,0,1,0,2.64h0c0,.17-.08.34-.12.51a1.24,1.24,0,0,0,0,.16c0,.13-.09.26-.14.39s-.06.18-.1.27l-.12.26c-.06.13-.11.25-.18.37l-.09.15c-.08.15-.17.3-.26.44l0,.05a6.89,6.89,0,0,1-1.78,1.79l-.08,0-.4.25-.19.11-.33.16-.3.14-.24.09-.42.14-.13,0a6.92,6.92,0,0,1-3.75,0,.53.53,0,0,1-.12,0,3.66,3.66,0,0,1-.43-.15l-.23-.08-.3-.14-.33-.16L100.3,79l-.4-.25-.08,0A7,7,0,0,1,98,76.9l0-.05a4,4,0,0,1-.27-.44l-.09-.15c-.07-.12-.12-.24-.18-.37l-.12-.26c0-.09-.07-.18-.1-.27a3,3,0,0,1-.13-.39s0-.1-.05-.16S97,74.47,97,74.3h0a6.9,6.9,0,0,1,0-2.64h0c0-.18.08-.35.12-.52s0-.1.05-.16a2.84,2.84,0,0,1,.13-.38c0-.09.06-.19.1-.28l.12-.26.18-.37a1,1,0,0,0,.08-.14c.09-.15.18-.31.28-.45h0a6.88,6.88,0,0,1,2.41-2.2Zm-3.65-29.7a7,7,0,1,1,7,7A7,7,0,0,1,96.82,37.14ZM73.52,52.56a7,7,0,1,1,9.85,0A7,7,0,0,1,73.52,52.56ZM48.19,77.89a7,7,0,0,1,0-9.85A7,7,0,0,1,58,77.89a7,7,0,0,1-9.84,0Zm-5.57,27.38a7,7,0,1,1,7-7A7,7,0,0,1,42.62,105.27Zm29,27.52a3.48,3.48,0,0,1,.1-.44l.06-.23.12-.33c0-.11.07-.22.12-.33l.1-.22c.06-.14.13-.28.2-.41l.06-.1a7.09,7.09,0,0,1,2.14-2.35l0,0,.42-.26.17-.1.34-.16.3-.14.22-.08a3.81,3.81,0,0,1,.44-.15l.09,0a7,7,0,0,1,3.81,0l.09,0a3.81,3.81,0,0,1,.44.15l.22.08.31.14.33.16.17.1.42.26,0,0a7.16,7.16,0,0,1,1.8,1.8l0,.07c.09.13.17.27.25.41a1.74,1.74,0,0,1,.11.18,3.54,3.54,0,0,1,.16.34,2.09,2.09,0,0,1,.14.3,1.55,1.55,0,0,1,.08.23,3.52,3.52,0,0,1,.15.42l0,.13a7,7,0,0,1,0,3.76l0,.11c0,.15-.1.29-.15.44s0,.15-.08.22l-.15.32c0,.1-.09.21-.15.31l-.12.21c-.08.13-.15.26-.24.38a.83.83,0,0,1-.08.12,6.93,6.93,0,0,1-1.76,1.74l0,0c-.13.09-.27.17-.41.25l-.18.11-.33.16-.31.14-.23.08c-.14,0-.28.11-.43.15l-.1,0a7.13,7.13,0,0,1-3.78,0l-.11,0c-.15,0-.29-.1-.43-.15l-.23-.08-.31-.14-.32-.16-.19-.11c-.14-.08-.28-.16-.41-.25l0,0A7,7,0,0,1,72.68,138h0c-.1-.15-.19-.3-.28-.46s0-.08-.07-.13-.13-.26-.19-.39a2.56,2.56,0,0,1-.11-.24,2.85,2.85,0,0,1-.12-.31l-.12-.34c0-.08,0-.15,0-.22s-.09-.3-.12-.46,0-.07,0-.1a6.78,6.78,0,0,1,0-2.46A.5.5,0,0,1,71.62,132.79Zm-29,8.31a7,7,0,1,1,7-7A7,7,0,0,1,42.62,141.1ZM58,164.39a7,7,0,0,1-9.84,0,7,7,0,0,1,0-9.84,7,7,0,0,1,9.84,0A7,7,0,0,1,58,164.39ZM97,158.13c0-.15.07-.3.11-.45l.06-.22c0-.12.08-.23.12-.35s.07-.21.11-.31a1.63,1.63,0,0,1,.11-.23c.06-.14.12-.27.19-.4l.08-.13c.09-.15.18-.31.28-.46h0a7,7,0,0,1,4.36-2.92h0l.6-.09.1,0c.23,0,.46,0,.7,0h0c.23,0,.45,0,.67,0l.14,0a5,5,0,0,1,.56.09h0a7,7,0,0,1,4.25,2.82.76.76,0,0,0,.08.11c.08.12.16.25.23.38l.13.21.15.32c.05.1.1.21.14.31l.09.23.15.43,0,.12a7.06,7.06,0,0,1,0,3.76l0,.12-.15.43-.09.22a3.09,3.09,0,0,1-.14.32l-.15.32-.13.21c-.07.13-.15.26-.23.38l-.08.11a7,7,0,0,1-1.72,1.71l-.1.08-.4.24a1.18,1.18,0,0,1-.19.11l-.33.16-.3.14a2.5,2.5,0,0,1-.25.09l-.41.15-.15,0a4.39,4.39,0,0,1-.52.13h0a6.4,6.4,0,0,1-1.31.13,6.85,6.85,0,0,1-1.28-.12h-.06l-.48-.12-.19-.05a2.72,2.72,0,0,1-.37-.13l-.28-.1-.26-.12-.38-.18-.14-.08-.45-.28h0A7,7,0,0,1,98,163.36h0a4.48,4.48,0,0,1-.28-.47l-.08-.12c-.07-.13-.13-.26-.19-.4a2.4,2.4,0,0,1-.11-.23,3,3,0,0,1-.11-.32,3.4,3.4,0,0,1-.12-.34l-.06-.22c0-.15-.08-.3-.11-.45s0-.08,0-.12a7.14,7.14,0,0,1,0-2.44S96.94,158.17,97,158.13Zm-13.58,31.6a7,7,0,1,1,0-9.85A7,7,0,0,1,83.37,189.73Zm27.37,5.57a7,7,0,1,1-7-7A7,7,0,0,1,110.74,195.3Z"/><path class="cls-1" d="M194,124.51a9.64,9.64,0,0,0-9.53,8.29H167.64c0-.2,0-.4-.09-.6v0a9.53,9.53,0,0,0-1.35-3.28l0-.06c-.13-.2-.28-.39-.43-.58a1.49,1.49,0,0,0-.15-.2c-.12-.15-.25-.29-.38-.43s-.17-.2-.27-.29l-.24-.23-.48-.43-.13-.09a9.44,9.44,0,0,0-4-1.86l-.06,0c-.2,0-.4-.06-.6-.09V107.83l.44-.07H160l.68-.17.22,0h0l.51-.18a3.4,3.4,0,0,0,.34-.12l.06,0,.35-.16.45-.2.08,0,.18-.11.11-.07c.15-.08.3-.16.45-.26s.28-.2.42-.31l.35-.26a9.24,9.24,0,0,0,.73-.66,9.05,9.05,0,0,0,1.16-1.41l0,0c.13-.2.26-.41.37-.62a2.12,2.12,0,0,0,.12-.2c.09-.17.17-.34.25-.51s.12-.24.17-.36.09-.26.14-.38.13-.35.18-.53l.06-.24c.06-.23.13-.46.17-.69a.43.43,0,0,1,0-.05c0-.15.05-.31.07-.46h16.78a9.63,9.63,0,1,0,0-2.67H167.64c0-.15,0-.3-.07-.45a.13.13,0,0,0,0-.06c0-.23-.1-.46-.16-.68s0-.17-.07-.25-.12-.34-.18-.51-.09-.27-.14-.4-.11-.23-.16-.35-.17-.35-.26-.52a1.86,1.86,0,0,0-.11-.19,8.62,8.62,0,0,0-.69-1l11.87-11.87a9.62,9.62,0,1,0-1.88-1.88L163.91,90.63a9.24,9.24,0,0,0-1.06-.7l-.17-.1c-.18-.1-.36-.18-.54-.26s-.22-.11-.33-.15l-.42-.16-.49-.17-.29-.07c-.21-.06-.42-.12-.64-.16l-.13,0a9.33,9.33,0,0,0-3.44,0l-.13,0c-.22,0-.43.1-.64.16l-.29.07-.49.17-.42.16c-.11,0-.22.1-.33.15s-.36.16-.54.26l-.18.1a10.08,10.08,0,0,0-1,.7L140.46,78.76a9.16,9.16,0,0,0,.69-1.06l.11-.17c.09-.18.17-.36.25-.54a3.54,3.54,0,0,0,.16-.34c.06-.13.1-.26.15-.4s.12-.33.17-.5,0-.18.07-.26.12-.45.17-.68a.2.2,0,0,1,0-.07,9.35,9.35,0,0,0,0-3.55.2.2,0,0,1,0-.07c0-.23-.11-.46-.17-.68l-.06-.25c-.06-.17-.12-.34-.19-.52s-.09-.26-.14-.39-.11-.23-.16-.35-.16-.35-.25-.52l-.12-.2c-.12-.21-.24-.42-.38-.62h0c-.09-.14-.19-.27-.29-.4l11.87-11.87a9.62,9.62,0,0,0,12.59-14.48,9.62,9.62,0,0,0-13.61,0,9.63,9.63,0,0,0-.87,12.59L138.57,65.29c-.16-.12-.32-.25-.49-.36a6.48,6.48,0,0,0-.57-.33l-.17-.11-.54-.26-.33-.15c-.14-.06-.28-.1-.42-.15l-.49-.17-.29-.08c-.21-.06-.42-.11-.64-.15l-.13,0-.39,0V46.66a9.62,9.62,0,1,0-2.66,0V63.45a2.76,2.76,0,0,0-.4.06h-.12l-.66.17-.26.06-.52.19a3,3,0,0,0-.39.14l-.37.17c-.17.08-.34.15-.5.24l-.23.13c-.17.1-.35.2-.51.31l-.08,0-.08.06A10.15,10.15,0,0,0,126,66.16a9.06,9.06,0,0,0-.66.73l-.06.08a9.49,9.49,0,0,0-1.9,4s0,0,0,0c0,.27-.09.54-.12.82a.68.68,0,0,0,0,.14,7.94,7.94,0,0,0,0,1,7.78,7.78,0,0,0,0,1,.51.51,0,0,0,0,.13c0,.28.07.56.12.83h0a9.6,9.6,0,0,0,1.94,4.1l0,0a7.4,7.4,0,0,0,.66.72,9.06,9.06,0,0,0,1.36,1.13l.07,0,.6.36.22.14.5.24.37.17.39.14c.17.06.34.13.52.18l.26.07c.22.06.44.12.66.16l.11,0a10.05,10.05,0,0,0,1.74.16,9.74,9.74,0,0,0,1.72-.16l.14,0c.21,0,.42-.1.63-.15l.29-.08c.17-.05.32-.11.48-.17l.43-.16.31-.14c.19-.09.38-.17.56-.27l.15-.09a7.74,7.74,0,0,0,1.08-.71l11.87,11.87-.36.49,0,.08a9.53,9.53,0,0,0-1.35,3.28h0a7.55,7.55,0,0,0-.13.83.69.69,0,0,1,0,.13c0,.32,0,.65,0,1s0,.66,0,1a.68.68,0,0,1,0,.14,7.37,7.37,0,0,0,.13.82,0,0,0,0,0,0,0,9.49,9.49,0,0,0,1.33,3.24s0,.07.05.1c.13.19.27.36.41.54l.17.24c.11.14.23.26.35.39s.19.22.3.33a9.76,9.76,0,0,0,1.43,1.17h0q.31.21.63.39a1.18,1.18,0,0,1,.19.11l.52.25.35.16c.13.06.26.1.39.15l.52.18h0l.07,0,.13,0,.69.17h.07l.45.07v16.78a9.58,9.58,0,0,0-4.7,2l-.05,0c-.25.21-.5.43-.73.66a8.8,8.8,0,0,0-.65.72l-.08.11a6.6,6.6,0,0,0-.5.68h0a9.66,9.66,0,0,0-1.39,3.33v0a7.37,7.37,0,0,0-.13.82.78.78,0,0,1,0,.14c0,.32,0,.65,0,1h0v0c0,.32,0,.64,0,1a.77.77,0,0,1,0,.15c0,.27.07.54.13.81v0a9.49,9.49,0,0,0,1.36,3.29l0,0c.11.17.24.33.36.5l-11.87,11.86-.36-.27-.06,0c-.19-.13-.39-.25-.59-.36l-.23-.14-.48-.23c-.13-.06-.26-.13-.39-.18l-.35-.13-.56-.2-.2-.05a9.35,9.35,0,0,0-5.14,0l-.2.05-.55.2-.36.13c-.13,0-.26.12-.39.18l-.48.23-.23.14c-.2.11-.4.23-.59.36l-.06,0c-.22.15-.43.3-.64.47a9.24,9.24,0,0,0-.73.66,8.88,8.88,0,0,0-.66.73c-.18.22-.33.44-.49.66l0,0c-.13.19-.25.4-.37.6a1.55,1.55,0,0,0-.12.22c-.09.16-.17.33-.25.5s-.12.24-.17.37-.09.25-.14.38-.13.35-.18.53a1.55,1.55,0,0,0-.06.23,5.78,5.78,0,0,0-.17.69.13.13,0,0,0,0,.06,9.61,9.61,0,0,0-.17,1.79,9.51,9.51,0,0,0,.17,1.78.2.2,0,0,0,0,.07c0,.23.1.45.16.67s0,.17.07.26a5.17,5.17,0,0,0,.18.51c0,.13.09.26.14.4s.11.22.16.34.16.35.26.53l.1.18a9.67,9.67,0,0,0,1.57,2.07,9.81,9.81,0,0,0,1.42,1.17h0c.21.14.42.26.64.38l.18.11c.18.1.35.18.53.26l.35.16.39.14a4.56,4.56,0,0,0,.52.18l.24.07c.23.06.46.12.69.16H131l.45.07v16.79a9.63,9.63,0,1,0,2.66,0V169l.46-.07h.06c.23,0,.45-.1.68-.16l.25-.07.51-.18.4-.14.35-.16c.17-.08.35-.16.52-.26l.18-.1a8.33,8.33,0,0,0,1-.7L150.44,179a9.62,9.62,0,0,0,7.68,15.42,9.63,9.63,0,1,0-5.8-17.3l-11.86-11.87a10,10,0,0,0,.69-1l.11-.18c.09-.18.17-.36.25-.53l.16-.34c.06-.14.1-.27.15-.41s.12-.33.17-.5,0-.18.07-.26.12-.45.17-.67a.22.22,0,0,1,0-.08,10.21,10.21,0,0,0,.17-1.77,9.42,9.42,0,0,0-.18-1.78v-.07c0-.23-.11-.46-.17-.68l-.06-.24c-.06-.18-.12-.36-.19-.53s-.09-.26-.14-.38-.11-.25-.17-.37-.15-.34-.24-.5-.09-.14-.13-.22a5.39,5.39,0,0,0-.37-.6l0,0c-.08-.12-.18-.25-.27-.37l11.87-11.87.4.3h0l.63.39.19.11.08,0c.14.08.29.14.44.21l.35.16.06,0,.33.12.52.18.25.06.68.17h.06a9.61,9.61,0,0,0,1.79.17,9,9,0,0,0,1.81-.18h0l.72-.18.21-.05.56-.2.34-.12.41-.19a4,4,0,0,0,.46-.23l.27-.15,0,0c.17-.1.35-.2.53-.32l.09-.07.33-.24,11.87,11.87a9.56,9.56,0,1,0,1.88-1.89l-11.87-11.86c.12-.16.25-.32.36-.49l.06-.09a9.49,9.49,0,0,0,1.33-3.24.06.06,0,0,1,0,0c0-.2.06-.4.09-.6h16.78a9.62,9.62,0,1,0,9.53-11Zm-34.5,2.79c.17,0,.33.08.49.12l.18,0,.39.13.27.1.28.13.35.17.17.1.42.26.07,0a6.81,6.81,0,0,1,1.79,1.8l0,0a4,4,0,0,1,.27.44l.09.15c.07.12.12.25.18.38l.12.25.11.3c0,.12.09.23.12.35l.06.22c0,.15.08.3.11.45s0,.08,0,.12a7.14,7.14,0,0,1,0,2.44s0,.08,0,.13-.07.29-.11.43l-.06.24c0,.11-.08.22-.11.33l-.12.33-.11.21c-.06.14-.12.28-.19.42l-.06.1a7.16,7.16,0,0,1-2.14,2.34l-.05,0-.44.27-.15.08-.37.19-.26.11-.29.11-.36.13-.19,0-.49.11h0a6.93,6.93,0,0,1-1.28.12,7,7,0,0,1-1.29-.12h-.05l-.49-.11-.18,0-.37-.13-.29-.11-.25-.11c-.13-.06-.26-.12-.38-.19l-.13-.07a7,7,0,0,1-2.64-2.66l-.06-.09c-.07-.14-.14-.28-.2-.42l-.1-.21c-.05-.11-.08-.22-.12-.33l-.12-.33-.06-.24c0-.14-.07-.29-.1-.43s0-.09,0-.14a7.08,7.08,0,0,1,0-2.43s0-.08,0-.12.07-.3.11-.45,0-.15,0-.22.08-.23.13-.35.07-.2.11-.3a1.89,1.89,0,0,1,.11-.25c.06-.13.12-.26.19-.38a1.09,1.09,0,0,1,.08-.15l.27-.44,0,0a7.15,7.15,0,0,1,1.84-1.84h0l.45-.28.14-.08.38-.18.25-.12.3-.11.36-.12.2,0c.15,0,.31-.09.47-.12h.08a7.11,7.11,0,0,1,2.52,0ZM165,99.64c0,.16-.07.31-.11.46l-.06.22c0,.11-.08.23-.12.35l-.11.3a2.56,2.56,0,0,0-.11.24c-.06.13-.12.27-.19.39l-.08.13a7,7,0,0,1-2.64,2.64l-.11.06-.4.2-.23.1-.32.12-.34.12-.22,0-.45.11-.12,0a7.09,7.09,0,0,1-1.13.11H158a6.6,6.6,0,0,1-1.16-.11l-.09,0-.47-.11-.2,0-.37-.13-.29-.11c-.09,0-.17-.08-.26-.12l-.37-.17-.15-.1-.44-.26,0,0a7.06,7.06,0,0,1-2.13-2.32s-.05-.09-.07-.13-.13-.26-.19-.39a2.56,2.56,0,0,1-.11-.24l-.12-.31-.12-.34c0-.08,0-.15,0-.22s-.08-.3-.11-.46,0-.07,0-.11a7.14,7.14,0,0,1,0-2.44s0-.09,0-.13.07-.29.1-.43l.06-.24.12-.33.12-.33.1-.21c.06-.14.13-.28.2-.42l.06-.1a7.06,7.06,0,0,1,2.67-2.67.93.93,0,0,1,.1,0,3.42,3.42,0,0,1,.43-.21l.19-.09.37-.14.28-.1.3-.07c.12,0,.25-.07.38-.09l.23,0c.14,0,.29,0,.45-.06h.11a5.25,5.25,0,0,1,.56,0,4.71,4.71,0,0,1,.53,0h.14l.46.06.22,0,.38.1.29.07.29.11a3.82,3.82,0,0,1,.36.13,1.76,1.76,0,0,1,.2.09,4.25,4.25,0,0,1,.43.21l.09,0a7,7,0,0,1,2.68,2.67.53.53,0,0,0,.06.1c.07.14.13.28.19.41s.07.15.11.22.08.22.11.33.09.22.12.33l.06.23c0,.15.08.29.11.44s0,.09,0,.13a6.9,6.9,0,0,1,0,2.44S165,99.61,165,99.64Zm29-8.3a7,7,0,1,1-7,7A7,7,0,0,1,194,91.34ZM178.53,68a7,7,0,1,1,0,9.85A7,7,0,0,1,178.53,68Zm-49.05-1.2.42-.2.21-.1.35-.13.3-.1.27-.07.4-.1.19,0a7.07,7.07,0,0,1,2.34,0l.17,0,.42.1.25.07.32.11.33.12.22.1.41.2a.41.41,0,0,1,.11.07,6.82,6.82,0,0,1,2.36,2.17h0c.1.15.19.3.28.46l.08.13c.07.12.12.25.18.37s.09.18.12.26.07.19.1.28.1.25.14.38a1,1,0,0,0,0,.17,3.81,3.81,0,0,1,.12.51h0a7.27,7.27,0,0,1,0,2.63v0a4.7,4.7,0,0,1-.12.51.94.94,0,0,0,0,.16c0,.13-.09.26-.14.39s-.06.18-.1.27a2.06,2.06,0,0,1-.12.26c-.06.13-.11.25-.18.37a1,1,0,0,1-.08.14c-.09.16-.18.31-.28.46h0A7.08,7.08,0,0,1,136.2,79l-.12.07-.39.19-.24.11-.31.11a3.59,3.59,0,0,1-.35.12l-.21.06-.46.11H134a6.26,6.26,0,0,1-1.23.12,6.33,6.33,0,0,1-1.23-.12h-.11l-.46-.11-.21-.06-.36-.12-.29-.11-.26-.12-.37-.18-.15-.09a4,4,0,0,1-.44-.27l-.05,0A6.89,6.89,0,0,1,127.08,77l-.08-.1c-.08-.12-.15-.25-.22-.38a1.59,1.59,0,0,1-.13-.22,1.55,1.55,0,0,1-.14-.29,2.6,2.6,0,0,1-.16-.34,1.07,1.07,0,0,1-.07-.19c-.06-.15-.12-.31-.17-.47a.43.43,0,0,0,0,0,7.1,7.1,0,0,1,0-3.88.43.43,0,0,1,0,0c0-.16.11-.32.17-.48a1.34,1.34,0,0,1,.07-.18,2.72,2.72,0,0,1,.16-.35,2.53,2.53,0,0,1,.14-.29l.13-.22c.07-.12.14-.25.22-.37l.08-.1a7,7,0,0,1,2.3-2.09Zm23.71-24.13a7,7,0,1,1,0,9.85A6.92,6.92,0,0,1,153.19,42.71Zm-27.37-5.57a7,7,0,1,1,7,7A7,7,0,0,1,125.82,37.14ZM127,155.58a7,7,0,0,1,1.88-1.88h0l.46-.28.13-.08.38-.18c.09,0,.17-.09.26-.12l.27-.1.38-.14.17,0,.51-.12h0a6.93,6.93,0,0,1,3.2.13l.12,0,.43.15.23.09.31.14.32.15.19.12.4.24.08.05a7.32,7.32,0,0,1,1.81,1.83h0c.11.15.2.31.29.46s0,.09.07.13.13.26.19.39a2.56,2.56,0,0,1,.11.24c0,.1.08.21.11.31a3.62,3.62,0,0,1,.13.35c0,.07,0,.14.05.22s.08.3.11.45,0,.07,0,.11a7.3,7.3,0,0,1,.11,1.23,7.1,7.1,0,0,1-.11,1.22s0,.08,0,.12-.07.3-.11.45,0,.15-.05.22-.08.23-.13.35-.07.21-.11.31a1.63,1.63,0,0,1-.11.23c-.06.14-.12.27-.19.4l-.07.12a4.57,4.57,0,0,1-.29.47h0a6.9,6.9,0,0,1-1.86,1.87h0a4,4,0,0,1-.44.27l-.15.09-.36.17-.28.13-.26.1-.39.13-.15,0a6.9,6.9,0,0,1-1.86.26,7.1,7.1,0,0,1-1.88-.26l-.12,0-.42-.15-.24-.09-.3-.14-.33-.16-.18-.1-.41-.26-.05,0a6.93,6.93,0,0,1-2.12-2.32l-.08-.12c-.07-.13-.13-.26-.19-.4l-.11-.23c0-.1-.07-.21-.11-.31s-.09-.23-.12-.35l-.06-.22c0-.15-.08-.3-.11-.45s0-.08,0-.12a7.1,7.1,0,0,1-.11-1.22,7.3,7.3,0,0,1,.11-1.23s0-.07,0-.11.07-.3.11-.45l.06-.22a3.59,3.59,0,0,1,.12-.35c0-.1.07-.21.11-.31a2.56,2.56,0,0,0,.11-.24c.06-.13.12-.26.19-.39l.08-.13c.09-.15.18-.31.28-.46Zm12.73,39.72a7,7,0,1,1-7-7A7,7,0,0,1,139.74,195.3ZM163,179.88a7,7,0,1,1-4.92-2A7,7,0,0,1,163,179.88Zm25.34-25.33a7,7,0,1,1-9.85,0A6.92,6.92,0,0,1,188.38,154.55ZM194,141.1a7,7,0,1,1,7-7A7,7,0,0,1,194,141.1Z"/><path class="cls-1" d="M390.67,163.15c-1.39-2.47-3.11-5.4-5.19-8.77s-4.38-6.95-6.92-10.73-5.18-7.7-7.94-11.74-5.52-8-8.25-11.79-5.42-7.4-8.05-10.74-4.94-6.22-7-8.65v62.42h-7.16V89.05H346q5.46,6.08,11.69,14.07t12.23,16.27q6,8.28,11.19,16.19t8.52,13.78V89.05h7.17v74.1Z"/><path class="cls-1" d="M409.27,135.46a35.18,35.18,0,0,1,2.08-12.68,28.06,28.06,0,0,1,5.46-9,21.42,21.42,0,0,1,7.69-5.4,23.44,23.44,0,0,1,8.94-1.77q10.15,0,16.19,6.63t6.05,20.43q0,.86-.06,1.71c0,.57-.09,1.1-.16,1.6H416.65c.2,6.78,1.89,12,5,15.61s8.13,5.46,15,5.46a30.44,30.44,0,0,0,9-1.07,36.07,36.07,0,0,0,4.8-1.82l1.29,6a29,29,0,0,1-5.61,2,35.27,35.27,0,0,1-9.68,1.18,32.1,32.1,0,0,1-12.4-2.14,22.08,22.08,0,0,1-8.45-6,23.51,23.51,0,0,1-4.82-9.14A42.48,42.48,0,0,1,409.27,135.46Zm39.24-4.39q-.21-8.66-4.06-13.47t-10.91-4.81a14.5,14.5,0,0,0-6.68,1.5,16.88,16.88,0,0,0-5.13,4,18.74,18.74,0,0,0-3.43,5.83,24.51,24.51,0,0,0-1.45,6.95Z"/><path class="cls-1" d="M510.64,161.23c-2.06.57-4.85,1.21-8.34,1.92a64.82,64.82,0,0,1-12.83,1.07,25.94,25.94,0,0,1-10.38-1.82,16.86,16.86,0,0,1-6.73-5.13,20.74,20.74,0,0,1-3.69-8,44.61,44.61,0,0,1-1.12-10.37v-31h6.95v28.76a49.16,49.16,0,0,0,.86,10,16.24,16.24,0,0,0,2.77,6.58,11,11,0,0,0,5,3.63,21.53,21.53,0,0,0,7.43,1.12,60.77,60.77,0,0,0,8.56-.53,23.47,23.47,0,0,0,4.59-1V107.87h6.95Z"/><path class="cls-1" d="M544.86,106.8a38.12,38.12,0,0,1,6.48.53,19.9,19.9,0,0,1,4.22,1.07l-1.39,6a15.73,15.73,0,0,0-3.47-.91,39.89,39.89,0,0,0-6.91-.48,32.5,32.5,0,0,0-7.21.64,19.75,19.75,0,0,0-3.59,1.07v48.44h-7V110.43a52.59,52.59,0,0,1,7.38-2.4A45.92,45.92,0,0,1,544.86,106.8Z"/><path class="cls-1" d="M610.2,135.57a35.9,35.9,0,0,1-1.87,11.86,26.34,26.34,0,0,1-5.24,9.09,23.77,23.77,0,0,1-8,5.83,25.85,25.85,0,0,1-20.32,0,23.81,23.81,0,0,1-8-5.83,26.52,26.52,0,0,1-5.25-9.09,38.77,38.77,0,0,1,0-23.73,27.19,27.19,0,0,1,5.25-9.15,23.55,23.55,0,0,1,8-5.88,25.74,25.74,0,0,1,20.32,0,23.51,23.51,0,0,1,8,5.88,27,27,0,0,1,5.24,9.15A35.87,35.87,0,0,1,610.2,135.57Zm-7.38,0q0-10.38-4.82-16.53a16.9,16.9,0,0,0-26.08,0q-4.81,6.15-4.81,16.53T571.92,152A17,17,0,0,0,598,152Q602.83,145.94,602.82,135.57Z"/><path class="cls-1" d="M658.54,132.14q1.71,2.15,4.33,5.61t5.39,7.71q2.79,4.22,5.51,8.82a89,89,0,0,1,4.66,8.87H667.09q-2.15-4.07-4.65-8.23t-5.08-8q-2.57-3.8-5.09-7.11c-1.67-2.21-3.19-4.13-4.53-5.78-.93.08-1.88.11-2.83.11H632.65v29H622.28v-73a57.66,57.66,0,0,1,9.79-1.45c3.6-.25,6.89-.37,9.89-.37q15.62,0,23.8,5.88t8.18,17.54A20.51,20.51,0,0,1,670,124.33Q666.13,129.58,658.54,132.14ZM642.82,97.39q-6.63,0-10.17.32v27.91H640a77.53,77.53,0,0,0,9.63-.54,21.7,21.7,0,0,0,7.22-2,10.9,10.9,0,0,0,4.54-4.22,14.07,14.07,0,0,0,1.61-7.22,13.62,13.62,0,0,0-1.61-7,11.84,11.84,0,0,0-4.33-4.39A19.24,19.24,0,0,0,650.67,98,45.62,45.62,0,0,0,642.82,97.39Z"/><path class="cls-1" d="M682.81,135.46A35.42,35.42,0,0,1,685,122.57a27,27,0,0,1,5.67-9.14,23.19,23.19,0,0,1,8.12-5.46,25.43,25.43,0,0,1,9.41-1.81q11.24,0,17.22,7t6,21.33v1.66a15.41,15.41,0,0,1-.1,1.87H693.19q.64,8.67,5,13.16t13.69,4.49a36.33,36.33,0,0,0,8.82-.91,32,32,0,0,0,5.4-1.77l1.39,8.35a30.62,30.62,0,0,1-6.36,2,45.52,45.52,0,0,1-10.33,1.06,32.77,32.77,0,0,1-12.56-2.19,23.34,23.34,0,0,1-8.72-6,24.65,24.65,0,0,1-5.07-9.14A38.53,38.53,0,0,1,682.81,135.46ZM721,130a16.74,16.74,0,0,0-3.37-11.07,11.63,11.63,0,0,0-9.57-4.33,13.11,13.11,0,0,0-6,1.34,14.14,14.14,0,0,0-4.44,3.47,16,16,0,0,0-2.84,4.92A25.11,25.11,0,0,0,693.4,130Z"/><path class="cls-1" d="M742.7,163.15V81.88l9.94-1.71v28.45a32.88,32.88,0,0,1,5.93-1.66,34.26,34.26,0,0,1,6.26-.59,28.14,28.14,0,0,1,11,1.87,17.27,17.27,0,0,1,7,5.24,20.17,20.17,0,0,1,3.69,8.07,47.73,47.73,0,0,1,1.06,10.38v31.22h-9.94V134.06a46.83,46.83,0,0,0-.7-8.76,14.94,14.94,0,0,0-2.29-5.89,9.16,9.16,0,0,0-4.29-3.26,18.66,18.66,0,0,0-6.62-1,27.41,27.41,0,0,0-3.32.21c-1.14.15-2.23.3-3.26.48s-2,.38-2.77.59a17.94,17.94,0,0,0-1.77.53v46.2Z"/><path class="cls-1" d="M818.72,106.16a28.7,28.7,0,0,1,10.11,1.55,16.43,16.43,0,0,1,6.64,4.38,16.64,16.64,0,0,1,3.57,6.74,32.21,32.21,0,0,1,1.08,8.61v34.75l-3.59.59c-1.53.25-3.26.48-5.18.69s-4,.41-6.26.59-4.48.27-6.68.27a36.72,36.72,0,0,1-8.67-1,19.53,19.53,0,0,1-6.84-3.05,13.78,13.78,0,0,1-4.49-5.51,19.24,19.24,0,0,1-1.61-8.23,15.94,15.94,0,0,1,1.87-7.92,15.15,15.15,0,0,1,5.08-5.35,23.78,23.78,0,0,1,7.49-3,40.93,40.93,0,0,1,9-1c1,0,2,.06,3.11.16s2.08.25,3,.43l2.52.48,1.49.32V128a22.84,22.84,0,0,0-.53-4.87,11.15,11.15,0,0,0-1.93-4.27,9.71,9.71,0,0,0-3.79-3,15,15,0,0,0-6.25-1.12,46.32,46.32,0,0,0-8.61.7,29.93,29.93,0,0,0-5.52,1.44l-1.17-8.23A29.8,29.8,0,0,1,809,107,54.78,54.78,0,0,1,818.72,106.16Zm.86,49.83q3.54,0,6.26-.16a28.05,28.05,0,0,0,4.54-.59V138.66a13.34,13.34,0,0,0-3.48-.91,40.62,40.62,0,0,0-10.58-.05,14.67,14.67,0,0,0-4.59,1.34,9.83,9.83,0,0,0-3.49,2.78,7.35,7.35,0,0,0-1.39,4.65c0,3.57,1.15,6,3.43,7.43S815.66,156,819.58,156Z"/><path class="cls-1" d="M863.53,110a27.16,27.16,0,0,1,5.5-2.46,26,26,0,0,1,8.51-1.28,25.3,25.3,0,0,1,10.64,2.14,22.26,22.26,0,0,1,7.86,6,26.52,26.52,0,0,1,4.87,9.2,39.7,39.7,0,0,1,1.65,11.76,34.86,34.86,0,0,1-2,12.14,25.52,25.52,0,0,1-5.61,9.14,24.69,24.69,0,0,1-8.77,5.77,31.07,31.07,0,0,1-11.55,2,69.25,69.25,0,0,1-12.3-1c-3.56-.64-6.49-1.28-8.76-1.92V81.88l9.94-1.71Zm0,44.49a31.64,31.64,0,0,0,4.23.8,50.87,50.87,0,0,0,6.79.38q8,0,12.83-5.3t4.81-15a36.6,36.6,0,0,0-.85-8,17.86,17.86,0,0,0-2.79-6.47,13.36,13.36,0,0,0-5-4.28,16.1,16.1,0,0,0-7.34-1.55,19.84,19.84,0,0,0-7.48,1.39,20.32,20.32,0,0,0-5.24,2.89Z"/></g></g></svg>